<svg xmlns="http://www.w3.org/2000/svg" width="20.2" height="20.2" viewBox="0 0 20.2 20.2">
  <path id="phone-call" d="M10.966.843A.843.843,0,0,1,11.809,0a8.44,8.44,0,0,1,8.43,8.43.843.843,0,1,1-1.686,0,6.752,6.752,0,0,0-6.744-6.744.843.843,0,0,1-.843-.843Zm.843,4.215A3.372,3.372,0,0,1,15.181,8.43a.843.843,0,1,0,1.686,0,5.063,5.063,0,0,0-5.058-5.058.843.843,0,0,0,0,1.686Zm7.666,9.053a2.613,2.613,0,0,1,0,3.691l-.767.884C11.8,25.3-5,8.5,1.509,1.573L2.479.73A2.6,2.6,0,0,1,6.127.764C6.153.79,7.715,2.819,7.715,2.819a2.613,2.613,0,0,1-.006,3.61L6.733,7.656a10.775,10.775,0,0,0,5.843,5.855l1.235-.982a2.613,2.613,0,0,1,3.609-.005S19.448,14.085,19.474,14.111Zm-1.16,1.226s-2.017-1.552-2.044-1.578a.927.927,0,0,0-1.306,0c-.023.024-1.723,1.378-1.723,1.378a.843.843,0,0,1-.825.128A12.653,12.653,0,0,1,4.98,7.84.843.843,0,0,1,5.1,7S6.457,5.3,6.48,5.274a.927.927,0,0,0,0-1.306C6.454,3.943,4.9,1.924,4.9,1.924a.927.927,0,0,0-1.273.033L2.659,2.8c-4.756,5.719,9.8,19.472,14.816,14.735l.768-.885a.945.945,0,0,0,.072-1.313Z" transform="translate(-0.039 0.001)" fill="#DE293B"/>
</svg>
